<svg xmlns="http://www.w3.org/2000/svg" viewBox="0 0 64 64"><defs><style>.a{fill:#000842;}.b{fill:#f6ae2d;}.c{fill:#fff;}.d{fill:#000882;}.e{fill:#f80;}</style></defs><rect class="a" width="64" height="64"/><path class="b" d="M53.34,54a1,1,0,0,0,1-1V11a1,1,0,0,0-1-1H9.91a1,1,0,0,0-1,1V53a1,1,0,0,0,1,1Z"/><rect class="c" x="11.66" y="13.33" width="39.65" height="38.31"/><path class="d" d="M17.05,26.53a1.41,1.41,0,0,0,.45,1.11,1.65,1.65,0,0,0,2.26-.08L22,25.31l2.25,2.25a1.65,1.65,0,0,0,2.26.08,1.61,1.61,0,0,0,0-2.22L24.22,23.1l2.32-2.31a1.48,1.48,0,0,0,0-2.21,1.57,1.57,0,0,0-2.21,0L22,20.9,19.7,18.58a1.48,1.48,0,0,0-2.21,0,1.57,1.57,0,0,0,0,2.21l2.32,2.31-2.32,2.32A1.42,1.42,0,0,0,17.05,26.53Z"/><path class="d" d="M46.2,38.3a1.47,1.47,0,0,0-2.2,0l-2.31,2.2-2.31-2.2a1.55,1.55,0,1,0-2.19,2.2l2.3,2.3-2.3,2.31a1.47,1.47,0,0,0,0,2.2,1.66,1.66,0,0,0,2.19,0L41.69,45,44,47.28a1.61,1.61,0,0,0,2.13.12,1.49,1.49,0,0,0,.1-2.29L43.89,42.8l2.31-2.3A1.67,1.67,0,0,0,46.2,38.3Z"/><path class="e" d="M36.74,25.6l2.77-2.77V29c0,2.3-1.88,2.62-4.18,2.62H27.07a6.94,6.94,0,0,0-7,6.37v.29l-.2.1a5.1,5.1,0,0,0-2.65,7.77,5.14,5.14,0,1,0,6-7.67l-.3-.1.1-.29a4.25,4.25,0,0,1,4.08-3.49h8.26c3.88,0,7.06-1.61,7.06-5.5V22.93l2.71,2.71,2-1.93-6.31-6-6.19,5.9m-11,19.57a2.26,2.26,0,0,1-2.47,2.48,2.31,2.31,0,0,1-2.09-2.08A2.26,2.26,0,0,1,21.7,41.1,2.3,2.3,0,0,1,23.78,43.18Z"/></svg>
